<svg width="111" height="111" viewBox="0 0 111 111" fill="none" xmlns="http://www.w3.org/2000/svg">
<path fill-rule="evenodd" clip-rule="evenodd" d="M55.5 13.875C57.4157 13.875 58.9688 15.428 58.9688 17.3438V93.6562C58.9688 95.572 57.4157 97.125 55.5 97.125C53.5843 97.125 52.0312 95.572 52.0312 93.6562V17.3438C52.0312 15.428 53.5843 13.875 55.5 13.875Z" fill="black"/>
<path fill-rule="evenodd" clip-rule="evenodd" d="M21.8285 59.9847C23.1831 58.6301 25.3794 58.6301 26.734 59.9847L55.5 88.7507L84.266 59.9847C85.6206 58.6301 87.8169 58.6301 89.1715 59.9847C90.5262 61.3394 90.5262 63.5356 89.1715 64.8903L57.9528 96.109C56.5981 97.4637 54.4019 97.4637 53.0472 96.109L21.8285 64.8903C20.4738 63.5356 20.4738 61.3394 21.8285 59.9847Z" fill="black"/>
</svg>
