<svg width="111" height="111" viewBox="0 0 111 111" fill="none" xmlns="http://www.w3.org/2000/svg">
<path fill-rule="evenodd" clip-rule="evenodd" d="M13.875 55.5C13.875 53.5843 15.428 52.0312 17.3438 52.0312H93.6562C95.572 52.0312 97.125 53.5843 97.125 55.5C97.125 57.4157 95.572 58.9688 93.6562 58.9688H17.3438C15.428 58.9688 13.875 57.4157 13.875 55.5Z" fill="white"/>
<path fill-rule="evenodd" clip-rule="evenodd" d="M51.0153 21.8285C52.3699 23.1831 52.3699 25.3794 51.0153 26.734L22.2493 55.5L51.0153 84.266C52.3699 85.6206 52.3699 87.8169 51.0153 89.1715C49.6606 90.5262 47.4644 90.5262 46.1097 89.1715L14.891 57.9528C13.5363 56.5981 13.5363 54.4019 14.891 53.0472L46.1097 21.8285C47.4644 20.4738 49.6606 20.4738 51.0153 21.8285Z" fill="white"/>
</svg>
