<svg width="111" height="111" viewBox="0 0 111 111" fill="none" xmlns="http://www.w3.org/2000/svg">
<path fill-rule="evenodd" clip-rule="evenodd" d="M55.5 13.875C57.4157 13.875 58.9688 15.428 58.9688 17.3438V93.6562C58.9688 95.572 57.4157 97.125 55.5 97.125C53.5843 97.125 52.0312 95.572 52.0312 93.6562V17.3438C52.0312 15.428 53.5843 13.875 55.5 13.875Z" fill="black"/>
<path fill-rule="evenodd" clip-rule="evenodd" d="M53.0472 14.891C54.4019 13.5363 56.5981 13.5363 57.9528 14.891L89.1715 46.1097C90.5262 47.4644 90.5262 49.6606 89.1715 51.0153C87.8169 52.3699 85.6206 52.3699 84.266 51.0153L55.5 22.2493L26.734 51.0153C25.3794 52.3699 23.1831 52.3699 21.8285 51.0153C20.4738 49.6606 20.4738 47.4644 21.8285 46.1097L53.0472 14.891Z" fill="black"/>
</svg>
