<svg width="111" height="111" viewBox="0 0 111 111" fill="none" xmlns="http://www.w3.org/2000/svg">
<path fill-rule="evenodd" clip-rule="evenodd" d="M13.875 55.5C13.875 53.5843 15.428 52.0312 17.3438 52.0312H93.6562C95.572 52.0312 97.125 53.5843 97.125 55.5C97.125 57.4157 95.572 58.9688 93.6562 58.9688H17.3438C15.428 58.9688 13.875 57.4157 13.875 55.5Z" fill="black"/>
<path fill-rule="evenodd" clip-rule="evenodd" d="M59.9847 21.8285C61.3394 20.4738 63.5356 20.4738 64.8903 21.8285L96.109 53.0472C97.4637 54.4019 97.4637 56.5981 96.109 57.9528L64.8903 89.1715C63.5356 90.5262 61.3394 90.5262 59.9847 89.1715C58.6301 87.8169 58.6301 85.6206 59.9847 84.266L88.7507 55.5L59.9847 26.734C58.6301 25.3794 58.6301 23.1831 59.9847 21.8285Z" fill="black"/>
</svg>
