<svg width="154" height="154" viewBox="0 0 154 154" fill="none" xmlns="http://www.w3.org/2000/svg">
<rect x="153" y="1" width="48" height="48" rx="8" transform="rotate(90 153 1)" stroke="#2D2C2C" stroke-width="2"/>
<rect x="153" y="53" width="48" height="48" rx="8" transform="rotate(90 153 53)" stroke="#2D2C2C" stroke-width="2"/>
<rect x="101" y="1" width="48" height="48" rx="8" transform="rotate(90 101 1)" stroke="#2D2C2C" stroke-width="2"/>
<rect x="101" y="53" width="48" height="48" rx="8" transform="rotate(90 101 53)" stroke="#2D2C2C" stroke-width="2"/>
<rect x="153" y="105" width="48" height="48" rx="8" transform="rotate(90 153 105)" stroke="#2D2C2C" stroke-width="2"/>
<rect x="101" y="105" width="48" height="48" rx="8" transform="rotate(90 101 105)" stroke="#2D2C2C" stroke-width="2"/>
<rect x="49" y="1" width="48" height="48" rx="8" transform="rotate(90 49 1)" stroke="#2D2C2C" stroke-width="2"/>
<rect x="49" y="53" width="48" height="48" rx="8" transform="rotate(90 49 53)" stroke="#2D2C2C" stroke-width="2"/>
<rect x="49" y="105" width="48" height="48" rx="8" transform="rotate(90 49 105)" stroke="#2D2C2C" stroke-width="2"/>
<path d="M130.5 43C130.5 42.1716 129.828 41.5 129 41.5C128.172 41.5 127.5 42.1716 127.5 43L130.5 43ZM127.939 128.061C128.525 128.646 129.475 128.646 130.061 128.061L139.607 118.515C140.192 117.929 140.192 116.979 139.607 116.393C139.021 115.808 138.071 115.808 137.485 116.393L129 124.879L120.515 116.393C119.929 115.808 118.979 115.808 118.393 116.393C117.808 116.979 117.808 117.929 118.393 118.515L127.939 128.061ZM127.5 43L127.5 127L130.5 127L130.5 43L127.5 43Z" fill="#5B5FC7"/>
<path d="M78.5 43C78.5 42.1716 77.8284 41.5 77 41.5C76.1716 41.5 75.5 42.1716 75.5 43L78.5 43ZM75.9393 128.061C76.5251 128.646 77.4749 128.646 78.0607 128.061L87.6066 118.515C88.1924 117.929 88.1924 116.979 87.6066 116.393C87.0208 115.808 86.0711 115.808 85.4853 116.393L77 124.879L68.5147 116.393C67.9289 115.808 66.9792 115.808 66.3934 116.393C65.8076 116.979 65.8076 117.929 66.3934 118.515L75.9393 128.061ZM75.5 43L75.5 127L78.5 127L78.5 43L75.5 43Z" fill="#5B5FC7"/>
<path d="M26.5 43C26.5 42.1716 25.8284 41.5 25 41.5C24.1716 41.5 23.5 42.1716 23.5 43L26.5 43ZM23.9393 128.061C24.5251 128.646 25.4749 128.646 26.0607 128.061L35.6066 118.515C36.1924 117.929 36.1924 116.979 35.6066 116.393C35.0208 115.808 34.0711 115.808 33.4853 116.393L25 124.879L16.5147 116.393C15.9289 115.808 14.9792 115.808 14.3934 116.393C13.8076 116.979 13.8076 117.929 14.3934 118.515L23.9393 128.061ZM23.5 43L23.5 127L26.5 127L26.5 43L23.5 43Z" fill="#5B5FC7"/>
<path d="M69.9091 37.5V35.4545L77.5909 27.0455C78.4924 26.0606 79.2348 25.2045 79.8182 24.4773C80.4015 23.7424 80.8333 23.053 81.1136 22.4091C81.4015 21.7576 81.5455 21.0758 81.5455 20.3636C81.5455 19.5455 81.3485 18.8371 80.9545 18.2386C80.5682 17.6402 80.0379 17.178 79.3636 16.8523C78.6894 16.5265 77.9318 16.3636 77.0909 16.3636C76.197 16.3636 75.4167 16.5492 74.75 16.9205C74.0909 17.2841 73.5795 17.7955 73.2159 18.4545C72.8598 19.1136 72.6818 19.8864 72.6818 20.7727H70C70 19.4091 70.3144 18.2121 70.9432 17.1818C71.572 16.1515 72.428 15.3485 73.5114 14.7727C74.6023 14.197 75.8258 13.9091 77.1818 13.9091C78.5455 13.9091 79.7538 14.197 80.8068 14.7727C81.8598 15.3485 82.6856 16.125 83.2841 17.1023C83.8826 18.0795 84.1818 19.1667 84.1818 20.3636C84.1818 21.2197 84.0265 22.0568 83.7159 22.875C83.4129 23.6856 82.8826 24.5909 82.125 25.5909C81.375 26.5833 80.3333 27.7955 79 29.2273L73.7727 34.8182V35H84.5909V37.5H69.9091Z" fill="black"/>
<path d="M128.273 37.3182C126.773 37.3182 125.436 37.0606 124.261 36.5455C123.095 36.0303 122.167 35.3144 121.477 34.3977C120.795 33.4735 120.424 32.4015 120.364 31.1818H123.227C123.288 31.9318 123.545 32.5795 124 33.125C124.455 33.6629 125.049 34.0795 125.784 34.375C126.519 34.6705 127.333 34.8182 128.227 34.8182C129.227 34.8182 130.114 34.6439 130.886 34.2955C131.659 33.947 132.265 33.4621 132.705 32.8409C133.144 32.2197 133.364 31.5 133.364 30.6818C133.364 29.8258 133.152 29.072 132.727 28.4205C132.303 27.7614 131.682 27.2462 130.864 26.875C130.045 26.5038 129.045 26.3182 127.864 26.3182H126V23.8182H127.864C128.788 23.8182 129.598 23.6515 130.295 23.3182C131 22.9848 131.549 22.5152 131.943 21.9091C132.345 21.303 132.545 20.5909 132.545 19.7727C132.545 18.9848 132.371 18.2992 132.023 17.7159C131.674 17.1326 131.182 16.678 130.545 16.3523C129.917 16.0265 129.174 15.8636 128.318 15.8636C127.515 15.8636 126.758 16.0114 126.045 16.3068C125.341 16.5947 124.765 17.0152 124.318 17.5682C123.871 18.1136 123.629 18.7727 123.591 19.5455H120.864C120.909 18.3258 121.277 17.2576 121.966 16.3409C122.655 15.4167 123.557 14.697 124.67 14.1818C125.792 13.6667 127.023 13.4091 128.364 13.4091C129.803 13.4091 131.038 13.7008 132.068 14.2841C133.098 14.8598 133.89 15.6212 134.443 16.5682C134.996 17.5152 135.273 18.5379 135.273 19.6364C135.273 20.947 134.928 22.0644 134.239 22.9886C133.557 23.9129 132.629 24.553 131.455 24.9091V25.0909C132.924 25.3333 134.072 25.9583 134.898 26.9659C135.723 27.9659 136.136 29.2045 136.136 30.6818C136.136 31.947 135.792 33.0833 135.102 34.0909C134.42 35.0909 133.489 35.8788 132.307 36.4545C131.125 37.0303 129.78 37.3182 128.273 37.3182Z" fill="black"/>
<path d="M26.5909 13.7273V37H23.7727V16.6818H23.6364L17.9545 20.4545V17.5909L23.7727 13.7273H26.5909Z" fill="black"/>
</svg>
