<svg width="1000" height="1000" viewBox="0 0 1000 1000" fill="none" xmlns="http://www.w3.org/2000/svg">
<path d="M275 372C275 360.954 283.954 352 295 352H705C716.046 352 725 360.954 725 372V682C725 693.046 716.046 702 705 702H295C283.954 702 275 693.046 275 682V372Z" fill="#B1B1B1"/>
<path d="M500 627C555.228 627 600 582.228 600 527C600 471.772 555.228 427 500 427C444.772 427 400 471.772 400 527C400 582.228 444.772 627 500 627Z" fill="#676767"/>
<path d="M568 298H432C420.954 298 412 306.954 412 318V359C412 370.046 420.954 379 432 379H568C579.046 379 588 370.046 588 359V318C588 306.954 579.046 298 568 298Z" fill="#B1B1B1"/>
</svg>
