<svg width="1000" height="1000" viewBox="0 0 1000 1000" fill="none" xmlns="http://www.w3.org/2000/svg">
<path d="M485 554C485 565.046 476.046 574 465 574H305C293.954 574 285 565.046 285 554V494C285 482.954 293.954 474 305 474H465C476.046 474 485 482.954 485 494V554Z" fill="#B1B1B1"/>
<path d="M592.428 504.587C603.857 512.545 603.857 529.455 592.428 537.413L498.179 603.039C484.919 612.272 466.75 602.784 466.75 586.626V455.374C466.75 439.216 484.919 429.728 498.178 438.961L592.428 504.587Z" fill="#B1B1B1"/>
<path d="M626.572 709C615.686 708.998 606.858 700.162 606.858 689.263V555.692L651.215 530.039C657.786 526.24 657.786 516.76 651.215 512.961L606.858 487.328V353.737C606.858 342.838 615.686 334.002 626.572 334H646.286C657.174 334 666.001 342.836 666.001 353.737V475.936L730.072 512.961C736.643 516.76 736.643 526.24 730.072 530.039L666.001 567.084V689.263C666.001 700.164 657.174 709 646.286 709H626.572Z" fill="#B1B1B1"/>
</svg>
