<svg width="1000" height="1000" viewBox="0 0 1000 1000" fill="none" xmlns="http://www.w3.org/2000/svg">
<path d="M484 531C484 542.046 475.046 551 464 551H304C292.954 551 284 542.046 284 531V471C284 459.954 292.954 451 304 451H464C475.046 451 484 459.954 484 471V531Z" fill="#B1B1B1"/>
<path d="M591.428 481.587C602.857 489.545 602.857 506.455 591.428 514.413L497.179 580.039C483.919 589.272 465.75 579.784 465.75 563.626V432.374C465.75 416.216 483.919 406.728 497.178 415.961L591.428 481.587Z" fill="#B1B1B1"/>
<path d="M625.572 686C614.686 685.998 605.858 677.162 605.858 666.263V532.692L650.215 507.039C656.786 503.24 656.786 493.76 650.215 489.961L605.858 464.328V330.737C605.858 319.838 614.686 311.002 625.572 311H645.286C656.175 311 665.001 319.836 665.001 330.737V452.936L729.072 489.961C735.643 493.76 735.643 503.24 729.072 507.039L665.001 544.084V666.263C665.001 677.164 656.175 686 645.286 686H625.572Z" fill="#B1B1B1"/>
</svg>
