<svg width="1000" height="1000" viewBox="0 0 1000 1000" fill="none" xmlns="http://www.w3.org/2000/svg">
<path d="M515 446C515 434.954 523.954 426 535 426H695C706.046 426 715 434.954 715 446V506C715 517.046 706.046 526 695 526H535C523.954 526 515 517.046 515 506V446Z" fill="#B1B1B1"/>
<path d="M407.572 495.413C396.143 487.455 396.143 470.545 407.572 462.587L501.821 396.961C515.081 387.728 533.25 397.216 533.25 413.374V544.626C533.25 560.784 515.081 570.272 501.822 561.039L407.572 495.413Z" fill="#B1B1B1"/>
<path d="M373.428 291C384.314 291.002 393.142 299.838 393.142 310.737V444.308L348.785 469.961C342.214 473.76 342.214 483.24 348.785 487.039L393.142 512.672V646.263C393.142 657.162 384.314 665.998 373.428 666H353.714C342.826 666 333.999 657.164 333.999 646.263V524.064L269.928 487.039C263.357 483.24 263.357 473.76 269.928 469.961L333.999 432.916V310.737C333.999 299.836 342.826 291 353.714 291H373.428Z" fill="#B1B1B1"/>
</svg>
