<svg width="1000" height="1000" viewBox="0 0 1000 1000" fill="none" xmlns="http://www.w3.org/2000/svg">
<path d="M525 468C525 456.954 533.954 448 545 448H705C716.046 448 725 456.954 725 468V528C725 539.046 716.046 548 705 548H545C533.954 548 525 539.046 525 528V468Z" fill="#B1B1B1"/>
<path d="M417.572 517.413C406.143 509.455 406.143 492.545 417.572 484.587L511.821 418.961C525.081 409.728 543.25 419.216 543.25 435.374V566.626C543.25 582.784 525.081 592.272 511.822 583.039L417.572 517.413Z" fill="#B1B1B1"/>
<path d="M383.428 313C394.314 313.002 403.142 321.838 403.142 332.737V466.308L358.785 491.961C352.214 495.76 352.214 505.24 358.785 509.039L403.142 534.672V668.263C403.142 679.162 394.314 687.998 383.428 688H363.714C352.826 688 343.999 679.164 343.999 668.263V546.064L279.928 509.039C273.357 505.24 273.357 495.76 279.928 491.961L343.999 454.916V332.737C343.999 321.836 352.826 313 363.714 313H383.428Z" fill="#B1B1B1"/>
</svg>
