<svg width="1000" height="1000" viewBox="0 0 1000 1000" fill="none" xmlns="http://www.w3.org/2000/svg">
<path d="M516 468C516 456.954 524.954 448 536 448H696C707.046 448 716 456.954 716 468V528C716 539.046 707.046 548 696 548H536C524.954 548 516 539.046 516 528V468Z" fill="#B1B1B1"/>
<path d="M408.572 517.413C397.143 509.455 397.143 492.545 408.572 484.587L502.821 418.961C516.081 409.728 534.25 419.216 534.25 435.374V566.626C534.25 582.784 516.081 592.272 502.822 583.039L408.572 517.413Z" fill="#B1B1B1"/>
<path d="M374.428 313C385.314 313.002 394.142 321.838 394.142 332.737V466.308L349.785 491.961C343.214 495.76 343.214 505.24 349.785 509.039L394.142 534.672V668.263C394.142 679.162 385.314 687.998 374.428 688H354.714C343.826 688 334.999 679.164 334.999 668.263V546.064L270.928 509.039C264.357 505.24 264.357 495.76 270.928 491.961L334.999 454.916V332.737C334.999 321.836 343.826 313 354.714 313H374.428Z" fill="#B1B1B1"/>
</svg>
