<svg width="1000" height="1000" viewBox="0 0 1000 1000" fill="none" xmlns="http://www.w3.org/2000/svg">
<path d="M475 533C475 544.046 466.046 553 455 553H295C283.954 553 275 544.046 275 533V473C275 461.954 283.954 453 295 453H455C466.046 453 475 461.954 475 473V533Z" fill="#B1B1B1"/>
<path d="M582.428 483.587C593.857 491.545 593.857 508.455 582.428 516.413L488.179 582.039C474.919 591.272 456.75 581.784 456.75 565.626V434.374C456.75 418.216 474.919 408.728 488.178 417.961L582.428 483.587Z" fill="#B1B1B1"/>
<path d="M616.572 688C605.686 687.998 596.858 679.162 596.858 668.263V534.692L641.215 509.039C647.786 505.24 647.786 495.76 641.215 491.961L596.858 466.328V332.737C596.858 321.838 605.686 313.002 616.572 313H636.286C647.175 313 656.001 321.836 656.001 332.737V454.936L720.072 491.961C726.643 495.76 726.643 505.24 720.072 509.039L656.001 546.084V668.263C656.001 679.164 647.175 688 636.286 688H616.572Z" fill="#B1B1B1"/>
</svg>
