<svg width="154" height="154" viewBox="0 0 154 154" fill="none" xmlns="http://www.w3.org/2000/svg">
<rect x="1" y="1" width="48" height="48" rx="8" stroke="#2D2C2C" stroke-width="2"/>
<rect x="53" y="1" width="48" height="48" rx="8" stroke="#2D2C2C" stroke-width="2"/>
<rect x="1" y="53" width="48" height="48" rx="8" stroke="#2D2C2C" stroke-width="2"/>
<rect x="53" y="53" width="48" height="48" rx="8" stroke="#2D2C2C" stroke-width="2"/>
<rect x="105" y="1" width="48" height="48" rx="8" stroke="#2D2C2C" stroke-width="2"/>
<rect x="105" y="53" width="48" height="48" rx="8" stroke="#2D2C2C" stroke-width="2"/>
<rect x="1" y="105" width="48" height="48" rx="8" stroke="#2D2C2C" stroke-width="2"/>
<rect x="53" y="105" width="48" height="48" rx="8" stroke="#2D2C2C" stroke-width="2"/>
<rect x="105" y="105" width="48" height="48" rx="8" stroke="#2D2C2C" stroke-width="2"/>
<path d="M43 23.5C42.1716 23.5 41.5 24.1716 41.5 25C41.5 25.8284 42.1716 26.5 43 26.5L43 23.5ZM129.061 26.0607C129.646 25.4749 129.646 24.5251 129.061 23.9393L119.515 14.3934C118.929 13.8076 117.979 13.8076 117.393 14.3934C116.808 14.9792 116.808 15.9289 117.393 16.5147L125.879 25L117.393 33.4853C116.808 34.0711 116.808 35.0208 117.393 35.6066C117.979 36.1924 118.929 36.1924 119.515 35.6066L129.061 26.0607ZM43 26.5L128 26.5L128 23.5L43 23.5L43 26.5Z" fill="#5B5FC7"/>
<path d="M43 75.5C42.1716 75.5 41.5 76.1716 41.5 77C41.5 77.8284 42.1716 78.5 43 78.5L43 75.5ZM129.061 78.0607C129.646 77.4749 129.646 76.5251 129.061 75.9393L119.515 66.3934C118.929 65.8076 117.979 65.8076 117.393 66.3934C116.808 66.9792 116.808 67.9289 117.393 68.5147L125.879 77L117.393 85.4853C116.808 86.0711 116.808 87.0208 117.393 87.6066C117.979 88.1924 118.929 88.1924 119.515 87.6066L129.061 78.0607ZM43 78.5L128 78.5L128 75.5L43 75.5L43 78.5Z" fill="#5B5FC7"/>
<path d="M43 127.5C42.1716 127.5 41.5 128.172 41.5 129C41.5 129.828 42.1716 130.5 43 130.5L43 127.5ZM129.061 130.061C129.646 129.475 129.646 128.525 129.061 127.939L119.515 118.393C118.929 117.808 117.979 117.808 117.393 118.393C116.808 118.979 116.808 119.929 117.393 120.515L125.879 129L117.393 137.485C116.808 138.071 116.808 139.021 117.393 139.607C117.979 140.192 118.929 140.192 119.515 139.607L129.061 130.061ZM43 130.5L128 130.5L128 127.5L43 127.5L43 130.5Z" fill="#5B5FC7"/>
<path d="M26.5909 14.7273V38H23.7727V17.6818H23.6364L17.9545 21.4545V18.5909L23.7727 14.7273H26.5909Z" fill="black"/>
<path d="M17.4091 90V87.9545L25.0909 79.5455C25.9924 78.5606 26.7348 77.7045 27.3182 76.9773C27.9015 76.2424 28.3333 75.553 28.6136 74.9091C28.9015 74.2576 29.0455 73.5758 29.0455 72.8636C29.0455 72.0455 28.8485 71.3371 28.4545 70.7386C28.0682 70.1402 27.5379 69.678 26.8636 69.3523C26.1894 69.0265 25.4318 68.8636 24.5909 68.8636C23.697 68.8636 22.9167 69.0492 22.25 69.4205C21.5909 69.7841 21.0795 70.2955 20.7159 70.9545C20.3598 71.6136 20.1818 72.3864 20.1818 73.2727H17.5C17.5 71.9091 17.8144 70.7121 18.4432 69.6818C19.072 68.6515 19.928 67.8485 21.0114 67.2727C22.1023 66.697 23.3258 66.4091 24.6818 66.4091C26.0455 66.4091 27.2538 66.697 28.3068 67.2727C29.3598 67.8485 30.1856 68.625 30.7841 69.6023C31.3826 70.5795 31.6818 71.6667 31.6818 72.8636C31.6818 73.7197 31.5265 74.5568 31.2159 75.375C30.9129 76.1856 30.3826 77.0909 29.625 78.0909C28.875 79.0833 27.8333 80.2955 26.5 81.7273L21.2727 87.3182V87.5H32.0909V90H17.4091Z" fill="black"/>
<path d="M24.2727 142.318C22.7727 142.318 21.4356 142.061 20.2614 141.545C19.0947 141.03 18.1667 140.314 17.4773 139.398C16.7955 138.473 16.4242 137.402 16.3636 136.182H19.2273C19.2879 136.932 19.5455 137.58 20 138.125C20.4545 138.663 21.0492 139.08 21.7841 139.375C22.5189 139.67 23.3333 139.818 24.2273 139.818C25.2273 139.818 26.1136 139.644 26.8864 139.295C27.6591 138.947 28.2652 138.462 28.7045 137.841C29.1439 137.22 29.3636 136.5 29.3636 135.682C29.3636 134.826 29.1515 134.072 28.7273 133.42C28.303 132.761 27.6818 132.246 26.8636 131.875C26.0455 131.504 25.0455 131.318 23.8636 131.318H22V128.818H23.8636C24.7879 128.818 25.5985 128.652 26.2955 128.318C27 127.985 27.5492 127.515 27.9432 126.909C28.3447 126.303 28.5455 125.591 28.5455 124.773C28.5455 123.985 28.3712 123.299 28.0227 122.716C27.6742 122.133 27.1818 121.678 26.5455 121.352C25.9167 121.027 25.1742 120.864 24.3182 120.864C23.5152 120.864 22.7576 121.011 22.0455 121.307C21.3409 121.595 20.7652 122.015 20.3182 122.568C19.8712 123.114 19.6288 123.773 19.5909 124.545H16.8636C16.9091 123.326 17.2765 122.258 17.9659 121.341C18.6553 120.417 19.5568 119.697 20.6705 119.182C21.7917 118.667 23.0227 118.409 24.3636 118.409C25.803 118.409 27.0379 118.701 28.0682 119.284C29.0985 119.86 29.8902 120.621 30.4432 121.568C30.9962 122.515 31.2727 123.538 31.2727 124.636C31.2727 125.947 30.928 127.064 30.2386 127.989C29.5568 128.913 28.6288 129.553 27.4545 129.909V130.091C28.9242 130.333 30.072 130.958 30.8977 131.966C31.7235 132.966 32.1364 134.205 32.1364 135.682C32.1364 136.947 31.7917 138.083 31.1023 139.091C30.4205 140.091 29.4886 140.879 28.3068 141.455C27.125 142.03 25.7803 142.318 24.2727 142.318Z" fill="black"/>
</svg>
