<svg width="111" height="111" viewBox="0 0 111 111" fill="none" xmlns="http://www.w3.org/2000/svg">
<path fill-rule="evenodd" clip-rule="evenodd" d="M52.0903 8.34713C53.1279 7.75174 54.3035 7.43835 55.5 7.43835C56.6965 7.43835 57.8721 7.75174 58.9097 8.34713L95.326 28.9396C96.3932 29.5457 97.2821 30.4226 97.902 31.4818C98.5228 32.5409 98.8525 33.745 98.8591 34.9724V34.9911V76.009H95.391L98.8591 76.0277C98.8525 77.2551 98.5228 78.4592 97.902 79.5184C97.2821 80.5775 96.3932 81.4544 95.326 82.0605L58.9099 102.653C57.8723 103.248 56.6966 103.561 55.5 103.561C54.3034 103.561 53.1277 103.248 52.0901 102.653L15.6797 82.0636L15.6742 82.0605C14.6068 81.4544 13.7181 80.5775 13.0978 79.5184C12.4774 78.4592 12.1473 77.2551 12.1407 76.0277L12.1406 76.009V34.9724C12.1472 33.745 12.4774 32.5409 13.0978 31.4818C13.7181 30.4226 14.6068 29.5457 15.6742 28.9396L15.6797 28.9365L52.0903 8.34713ZM91.922 75.9923V35.0078C91.9212 35.0009 91.9195 34.994 91.9162 34.988C91.9138 34.9842 91.9113 34.9806 91.9072 34.9777C91.9056 34.9757 91.9031 34.974 91.9006 34.9725C91.9006 34.9726 91.9006 34.9724 91.9006 34.9725L55.5 14.3889L19.1001 34.9722C19.1002 34.9721 19.0998 34.9723 19.1001 34.9722C19.0937 34.9759 19.0878 34.9816 19.084 34.988C19.0805 34.994 19.0785 35.0009 19.0781 35.0079V75.9923C19.0785 75.9992 19.0805 76.0061 19.084 76.0121C19.0877 76.0185 19.0931 76.0237 19.0994 76.0275C19.0997 76.0276 19.0993 76.0274 19.0994 76.0275L55.5 96.6111L91.8998 76.0279C91.8998 76.028 91.8998 76.0278 91.8998 76.0279C91.9064 76.0242 91.9121 76.0185 91.9162 76.0121C91.9195 76.0061 91.9212 75.9993 91.922 75.9923Z" fill="white"/>
<path fill-rule="evenodd" clip-rule="evenodd" d="M55.5 43.3594C48.7949 43.3594 43.3594 48.7949 43.3594 55.5C43.3594 62.2051 48.7949 67.6406 55.5 67.6406C62.205 67.6406 67.6406 62.2051 67.6406 55.5C67.6406 48.7949 62.205 43.3594 55.5 43.3594ZM36.4219 55.5C36.4219 44.9635 44.9634 36.4219 55.5 36.4219C66.0365 36.4219 74.5781 44.9635 74.5781 55.5C74.5781 66.0365 66.0365 74.5781 55.5 74.5781C44.9634 74.5781 36.4219 66.0365 36.4219 55.5Z" fill="white"/>
</svg>
