<svg width="135" height="135" viewBox="0 0 135 135" fill="none" xmlns="http://www.w3.org/2000/svg">
<path fill-rule="evenodd" clip-rule="evenodd" d="M63.3531 10.1519C64.615 9.42777 66.0448 9.04663 67.5 9.04663C68.9552 9.04663 70.385 9.42777 71.6469 10.1519L115.937 35.1968C117.235 35.934 118.316 37.0005 119.07 38.2886C119.825 39.5768 120.226 41.0412 120.234 42.534L120.234 42.5567L120.234 92.4434H116.016L120.234 92.4661C120.226 93.9589 119.825 95.4233 119.07 96.7115C118.316 97.9996 117.235 99.0661 115.937 99.8033L71.6472 124.848C70.3852 125.572 68.9553 125.953 67.5 125.953C66.0447 125.953 64.6148 125.572 63.3528 124.848L19.0699 99.8071L19.0632 99.8033C17.765 99.0661 16.6842 97.9996 15.9297 96.7115C15.1752 95.4233 14.7737 93.9589 14.7657 92.4661L14.7656 92.4434V42.534C14.7736 41.0412 15.1752 39.5768 15.9297 38.2886C16.6842 37.0005 17.765 35.934 19.0632 35.1968L19.0699 35.193L63.3531 10.1519ZM111.797 92.4231V42.577C111.796 42.5686 111.794 42.5603 111.79 42.553C111.787 42.5483 111.784 42.544 111.779 42.5404C111.777 42.538 111.774 42.5359 111.771 42.5341C111.771 42.534 111.771 42.5342 111.771 42.5341L67.5 17.5L23.2298 42.5338C23.2295 42.5339 23.23 42.5336 23.2298 42.5338C23.222 42.5383 23.2149 42.5452 23.2103 42.553C23.206 42.5603 23.2035 42.5686 23.2031 42.5771V92.423C23.2035 92.4315 23.206 92.4398 23.2103 92.4471C23.2148 92.4549 23.2213 92.4613 23.229 92.4659C23.2293 92.466 23.2288 92.4658 23.229 92.4659L67.5 117.5L111.77 92.4663C111.77 92.4662 111.77 92.4665 111.77 92.4663C111.778 92.4618 111.785 92.4549 111.79 92.4471C111.794 92.4398 111.796 92.4315 111.797 92.4231Z" fill="#2D2C2C"/>
<path fill-rule="evenodd" clip-rule="evenodd" d="M67.5 52.7344C59.3452 52.7344 52.7344 59.3452 52.7344 67.5C52.7344 75.6548 59.3452 82.2656 67.5 82.2656C75.6548 82.2656 82.2656 75.6548 82.2656 67.5C82.2656 59.3452 75.6548 52.7344 67.5 52.7344ZM44.2969 67.5C44.2969 54.6853 54.6853 44.2969 67.5 44.2969C80.3147 44.2969 90.7031 54.6853 90.7031 67.5C90.7031 80.3147 80.3147 90.7031 67.5 90.7031C54.6853 90.7031 44.2969 80.3147 44.2969 67.5Z" fill="#2D2C2C"/>
</svg>
