<svg width="100" height="100" viewBox="0 0 100 100" fill="none" xmlns="http://www.w3.org/2000/svg">
<path fill-rule="evenodd" clip-rule="evenodd" d="M68.75 37.5C69.9336 37.5 71.0157 38.1688 71.545 39.2275L93.42 82.9775C94.1919 84.5211 93.5662 86.3982 92.0225 87.1701C90.4788 87.9419 88.6017 87.3162 87.8299 85.7725L68.75 47.6127L49.67 85.7725C48.8982 87.3162 47.0211 87.9419 45.4774 87.1701C43.9337 86.3982 43.308 84.5211 44.0799 82.9775L65.9549 39.2275C66.4842 38.1688 67.5663 37.5 68.75 37.5Z" fill="black"/>
<path fill-rule="evenodd" clip-rule="evenodd" d="M50 71.875C50 70.1491 51.3991 68.75 53.125 68.75H84.375C86.1009 68.75 87.5 70.1491 87.5 71.875C87.5 73.6009 86.1009 75 84.375 75H53.125C51.3991 75 50 73.6009 50 71.875Z" fill="black"/>
<path fill-rule="evenodd" clip-rule="evenodd" d="M34.375 9.375C36.1009 9.375 37.5 10.7741 37.5 12.5V21.875C37.5 23.6009 36.1009 25 34.375 25C32.6491 25 31.25 23.6009 31.25 21.875V12.5C31.25 10.7741 32.6491 9.375 34.375 9.375Z" fill="black"/>
<path fill-rule="evenodd" clip-rule="evenodd" d="M6.25 21.875C6.25 20.1491 7.64911 18.75 9.375 18.75H59.375C61.1009 18.75 62.5 20.1491 62.5 21.875C62.5 23.6009 61.1009 25 59.375 25H9.375C7.64911 25 6.25 23.6009 6.25 21.875Z" fill="black"/>
<path fill-rule="evenodd" clip-rule="evenodd" d="M46.875 18.75C48.6009 18.75 50 20.1491 50 21.875C50 32.6494 45.7199 42.9825 38.1012 50.6012C30.4825 58.2199 20.1494 62.5 9.375 62.5C7.64911 62.5 6.25 61.1009 6.25 59.375C6.25 57.6491 7.64911 56.25 9.375 56.25C18.4918 56.25 27.2352 52.6284 33.6818 46.1818C40.1284 39.7352 43.75 30.9918 43.75 21.875C43.75 20.1491 45.1491 18.75 46.875 18.75Z" fill="black"/>
<path fill-rule="evenodd" clip-rule="evenodd" d="M22.9818 31.4286C24.609 30.8533 26.3944 31.706 26.9697 33.3332C29.339 40.0347 33.7275 45.8369 39.5309 49.9409C45.3344 54.045 52.2673 56.2492 59.3753 56.2499C61.1012 56.2501 62.5002 57.6493 62.5 59.3752C62.4998 61.1011 61.1006 62.5 59.3747 62.4999C50.9744 62.499 42.7808 59.8941 35.9222 55.0439C29.0637 50.1936 23.8773 43.3364 21.0772 35.4165C20.5019 33.7894 21.3546 32.0039 22.9818 31.4286Z" fill="black"/>
</svg>
