<svg width="154" height="154" viewBox="0 0 154 154" fill="none" xmlns="http://www.w3.org/2000/svg">
<rect x="153" y="1" width="48" height="48" rx="8" transform="rotate(90 153 1)" stroke="#2D2C2C" stroke-width="2"/>
<rect x="153" y="53" width="48" height="48" rx="8" transform="rotate(90 153 53)" stroke="#2D2C2C" stroke-width="2"/>
<rect x="101" y="1" width="48" height="48" rx="8" transform="rotate(90 101 1)" stroke="#2D2C2C" stroke-width="2"/>
<rect x="101" y="53" width="48" height="48" rx="8" transform="rotate(90 101 53)" stroke="#2D2C2C" stroke-width="2"/>
<rect x="153" y="105" width="48" height="48" rx="8" transform="rotate(90 153 105)" stroke="#2D2C2C" stroke-width="2"/>
<rect x="101" y="105" width="48" height="48" rx="8" transform="rotate(90 101 105)" stroke="#2D2C2C" stroke-width="2"/>
<rect x="49" y="1" width="48" height="48" rx="8" transform="rotate(90 49 1)" stroke="#2D2C2C" stroke-width="2"/>
<rect x="49" y="53" width="48" height="48" rx="8" transform="rotate(90 49 53)" stroke="#2D2C2C" stroke-width="2"/>
<rect x="49" y="105" width="48" height="48" rx="8" transform="rotate(90 49 105)" stroke="#2D2C2C" stroke-width="2"/>
<path d="M130.5 44C130.5 43.1716 129.828 42.5 129 42.5C128.172 42.5 127.5 43.1716 127.5 44L130.5 44ZM127.939 128.061C128.525 128.646 129.475 128.646 130.061 128.061L139.607 118.515C140.192 117.929 140.192 116.979 139.607 116.393C139.021 115.808 138.071 115.808 137.485 116.393L129 124.879L120.515 116.393C119.929 115.808 118.979 115.808 118.393 116.393C117.808 116.979 117.808 117.929 118.393 118.515L127.939 128.061ZM127.5 44L127.5 127L130.5 127L130.5 44L127.5 44Z" fill="#5B5FC7"/>
<path d="M75.5 112C75.5 112.828 76.1716 113.5 77 113.5C77.8284 113.5 78.5 112.828 78.5 112H75.5ZM78.0607 24.9393C77.4749 24.3535 76.5251 24.3535 75.9393 24.9393L66.3934 34.4853C65.8076 35.0711 65.8076 36.0208 66.3934 36.6066C66.9792 37.1924 67.9289 37.1924 68.5147 36.6066L77 28.1213L85.4853 36.6066C86.0711 37.1924 87.0208 37.1924 87.6066 36.6066C88.1924 36.0208 88.1924 35.0711 87.6066 34.4853L78.0607 24.9393ZM78.5 112L78.5 26H75.5L75.5 112H78.5Z" fill="#5B5FC7"/>
<path d="M26.5 44C26.5 43.1716 25.8284 42.5 25 42.5C24.1716 42.5 23.5 43.1716 23.5 44L26.5 44ZM23.9393 128.061C24.5251 128.646 25.4749 128.646 26.0607 128.061L35.6066 118.515C36.1924 117.929 36.1924 116.979 35.6066 116.393C35.0208 115.808 34.0711 115.808 33.4853 116.393L25 124.879L16.5147 116.393C15.9289 115.808 14.9792 115.808 14.3934 116.393C13.8076 116.979 13.8076 117.929 14.3934 118.515L23.9393 128.061ZM23.5 44L23.5 127L26.5 127L26.5 44L23.5 44Z" fill="#5B5FC7"/>
<path d="M69.4091 141V138.955L77.0909 130.545C77.9924 129.561 78.7348 128.705 79.3182 127.977C79.9015 127.242 80.3333 126.553 80.6136 125.909C80.9015 125.258 81.0455 124.576 81.0455 123.864C81.0455 123.045 80.8485 122.337 80.4545 121.739C80.0682 121.14 79.5379 120.678 78.8636 120.352C78.1894 120.027 77.4318 119.864 76.5909 119.864C75.697 119.864 74.9167 120.049 74.25 120.42C73.5909 120.784 73.0795 121.295 72.7159 121.955C72.3598 122.614 72.1818 123.386 72.1818 124.273H69.5C69.5 122.909 69.8144 121.712 70.4432 120.682C71.072 119.652 71.928 118.848 73.0114 118.273C74.1023 117.697 75.3258 117.409 76.6818 117.409C78.0455 117.409 79.2538 117.697 80.3068 118.273C81.3598 118.848 82.1856 119.625 82.7841 120.602C83.3826 121.58 83.6818 122.667 83.6818 123.864C83.6818 124.72 83.5265 125.557 83.2159 126.375C82.9129 127.186 82.3826 128.091 81.625 129.091C80.875 130.083 79.8333 131.295 78.5 132.727L73.2727 138.318V138.5H84.0909V141H69.4091Z" fill="black"/>
<path d="M128.273 37.3182C126.773 37.3182 125.436 37.0606 124.261 36.5455C123.095 36.0303 122.167 35.3144 121.477 34.3977C120.795 33.4735 120.424 32.4015 120.364 31.1818H123.227C123.288 31.9318 123.545 32.5795 124 33.125C124.455 33.6629 125.049 34.0795 125.784 34.375C126.519 34.6705 127.333 34.8182 128.227 34.8182C129.227 34.8182 130.114 34.6439 130.886 34.2955C131.659 33.947 132.265 33.4621 132.705 32.8409C133.144 32.2197 133.364 31.5 133.364 30.6818C133.364 29.8258 133.152 29.072 132.727 28.4205C132.303 27.7614 131.682 27.2462 130.864 26.875C130.045 26.5038 129.045 26.3182 127.864 26.3182H126V23.8182H127.864C128.788 23.8182 129.598 23.6515 130.295 23.3182C131 22.9848 131.549 22.5152 131.943 21.9091C132.345 21.303 132.545 20.5909 132.545 19.7727C132.545 18.9848 132.371 18.2992 132.023 17.7159C131.674 17.1326 131.182 16.678 130.545 16.3523C129.917 16.0265 129.174 15.8636 128.318 15.8636C127.515 15.8636 126.758 16.0114 126.045 16.3068C125.341 16.5947 124.765 17.0152 124.318 17.5682C123.871 18.1136 123.629 18.7727 123.591 19.5455H120.864C120.909 18.3258 121.277 17.2576 121.966 16.3409C122.655 15.4167 123.557 14.697 124.67 14.1818C125.792 13.6667 127.023 13.4091 128.364 13.4091C129.803 13.4091 131.038 13.7008 132.068 14.2841C133.098 14.8598 133.89 15.6212 134.443 16.5682C134.996 17.5152 135.273 18.5379 135.273 19.6364C135.273 20.947 134.928 22.0644 134.239 22.9886C133.557 23.9129 132.629 24.553 131.455 24.9091V25.0909C132.924 25.3333 134.072 25.9583 134.898 26.9659C135.723 27.9659 136.136 29.2045 136.136 30.6818C136.136 31.947 135.792 33.0833 135.102 34.0909C134.42 35.0909 133.489 35.8788 132.307 36.4545C131.125 37.0303 129.78 37.3182 128.273 37.3182Z" fill="black"/>
<path d="M26.5909 13.7273V37H23.7727V16.6818H23.6364L17.9545 20.4545V17.5909L23.7727 13.7273H26.5909Z" fill="black"/>
</svg>
