<svg width="154" height="154" viewBox="0 0 154 154" fill="none" xmlns="http://www.w3.org/2000/svg">
<rect x="1" y="1" width="48" height="48" rx="8" stroke="#2D2C2C" stroke-width="2"/>
<rect x="53" y="1" width="48" height="48" rx="8" stroke="#2D2C2C" stroke-width="2"/>
<rect x="1" y="53" width="48" height="48" rx="8" stroke="#2D2C2C" stroke-width="2"/>
<rect x="53" y="53" width="48" height="48" rx="8" stroke="#2D2C2C" stroke-width="2"/>
<rect x="105" y="1" width="48" height="48" rx="8" stroke="#2D2C2C" stroke-width="2"/>
<rect x="105" y="53" width="48" height="48" rx="8" stroke="#2D2C2C" stroke-width="2"/>
<rect x="1" y="105" width="48" height="48" rx="8" stroke="#2D2C2C" stroke-width="2"/>
<rect x="53" y="105" width="48" height="48" rx="8" stroke="#2D2C2C" stroke-width="2"/>
<rect x="105" y="105" width="48" height="48" rx="8" stroke="#2D2C2C" stroke-width="2"/>
<path d="M43 23.5C42.1716 23.5 41.5 24.1716 41.5 25C41.5 25.8284 42.1716 26.5 43 26.5L43 23.5ZM129.061 26.0607C129.646 25.4749 129.646 24.5251 129.061 23.9393L119.515 14.3934C118.929 13.8076 117.979 13.8076 117.393 14.3934C116.808 14.9792 116.808 15.9289 117.393 16.5147L125.879 25L117.393 33.4853C116.808 34.0711 116.808 35.0208 117.393 35.6066C117.979 36.1924 118.929 36.1924 119.515 35.6066L129.061 26.0607ZM43 26.5L128 26.5L128 23.5L43 23.5L43 26.5Z" fill="#5B5FC7"/>
<path d="M112 75.5C112.828 75.5 113.5 76.1716 113.5 77C113.5 77.8284 112.828 78.5 112 78.5L112 75.5ZM25.9393 78.0607C25.3536 77.4749 25.3536 76.5251 25.9393 75.9393L35.4853 66.3934C36.0711 65.8076 37.0208 65.8076 37.6066 66.3934C38.1924 66.9792 38.1924 67.9289 37.6066 68.5147L29.1213 77L37.6066 85.4853C38.1924 86.0711 38.1924 87.0208 37.6066 87.6066C37.0208 88.1924 36.0711 88.1924 35.4853 87.6066L25.9393 78.0607ZM112 78.5L27 78.5L27 75.5L112 75.5L112 78.5Z" fill="#5B5FC7"/>
<path d="M43 127.5C42.1716 127.5 41.5 128.172 41.5 129C41.5 129.828 42.1716 130.5 43 130.5L43 127.5ZM129.061 130.061C129.646 129.475 129.646 128.525 129.061 127.939L119.515 118.393C118.929 117.808 117.979 117.808 117.393 118.393C116.808 118.979 116.808 119.929 117.393 120.515L125.879 129L117.393 137.485C116.808 138.071 116.808 139.021 117.393 139.607C117.979 140.192 118.929 140.192 119.515 139.607L129.061 130.061ZM43 130.5L128 130.5L128 127.5L43 127.5L43 130.5Z" fill="#5B5FC7"/>
<path d="M26.5909 14.7273V38H23.7727V17.6818H23.6364L17.9545 21.4545V18.5909L23.7727 14.7273H26.5909Z" fill="black"/>
<path d="M121.409 89V86.9545L129.091 78.5455C129.992 77.5606 130.735 76.7045 131.318 75.9773C131.902 75.2424 132.333 74.553 132.614 73.9091C132.902 73.2576 133.045 72.5758 133.045 71.8636C133.045 71.0455 132.848 70.3371 132.455 69.7386C132.068 69.1402 131.538 68.678 130.864 68.3523C130.189 68.0265 129.432 67.8636 128.591 67.8636C127.697 67.8636 126.917 68.0492 126.25 68.4205C125.591 68.7841 125.08 69.2955 124.716 69.9545C124.36 70.6136 124.182 71.3864 124.182 72.2727H121.5C121.5 70.9091 121.814 69.7121 122.443 68.6818C123.072 67.6515 123.928 66.8485 125.011 66.2727C126.102 65.697 127.326 65.4091 128.682 65.4091C130.045 65.4091 131.254 65.697 132.307 66.2727C133.36 66.8485 134.186 67.625 134.784 68.6023C135.383 69.5795 135.682 70.6667 135.682 71.8636C135.682 72.7197 135.527 73.5568 135.216 74.375C134.913 75.1856 134.383 76.0909 133.625 77.0909C132.875 78.0833 131.833 79.2955 130.5 80.7273L125.273 86.3182V86.5H136.091V89H121.409Z" fill="black"/>
<path d="M24.2727 141.318C22.7727 141.318 21.4356 141.061 20.2614 140.545C19.0947 140.03 18.1667 139.314 17.4773 138.398C16.7955 137.473 16.4242 136.402 16.3636 135.182H19.2273C19.2879 135.932 19.5455 136.58 20 137.125C20.4545 137.663 21.0492 138.08 21.7841 138.375C22.5189 138.67 23.3333 138.818 24.2273 138.818C25.2273 138.818 26.1136 138.644 26.8864 138.295C27.6591 137.947 28.2652 137.462 28.7045 136.841C29.1439 136.22 29.3636 135.5 29.3636 134.682C29.3636 133.826 29.1515 133.072 28.7273 132.42C28.303 131.761 27.6818 131.246 26.8636 130.875C26.0455 130.504 25.0455 130.318 23.8636 130.318H22V127.818H23.8636C24.7879 127.818 25.5985 127.652 26.2955 127.318C27 126.985 27.5492 126.515 27.9432 125.909C28.3447 125.303 28.5455 124.591 28.5455 123.773C28.5455 122.985 28.3712 122.299 28.0227 121.716C27.6742 121.133 27.1818 120.678 26.5455 120.352C25.9167 120.027 25.1742 119.864 24.3182 119.864C23.5152 119.864 22.7576 120.011 22.0455 120.307C21.3409 120.595 20.7652 121.015 20.3182 121.568C19.8712 122.114 19.6288 122.773 19.5909 123.545H16.8636C16.9091 122.326 17.2765 121.258 17.9659 120.341C18.6553 119.417 19.5568 118.697 20.6705 118.182C21.7917 117.667 23.0227 117.409 24.3636 117.409C25.803 117.409 27.0379 117.701 28.0682 118.284C29.0985 118.86 29.8902 119.621 30.4432 120.568C30.9962 121.515 31.2727 122.538 31.2727 123.636C31.2727 124.947 30.928 126.064 30.2386 126.989C29.5568 127.913 28.6288 128.553 27.4545 128.909V129.091C28.9242 129.333 30.072 129.958 30.8977 130.966C31.7235 131.966 32.1364 133.205 32.1364 134.682C32.1364 135.947 31.7917 137.083 31.1023 138.091C30.4205 139.091 29.4886 139.879 28.3068 140.455C27.125 141.03 25.7803 141.318 24.2727 141.318Z" fill="black"/>
</svg>
